# File created by Blade
# Date/Time:  Tue Apr 07 20:13:45 2015
#---------------------------------------------------------
:version 1.10
:name HOM
:units
  mass 1.0
  length 1.000000
  angle deg
:documentation
     Acclaim Skeleton File
:root
   axis xyz
   order TX TY TZ RX RY RZ
   position 0.000000 0.000000 0.000000
   orientation 0 0 0
:bonedata
   begin
      id 1
      name Spine_dum
      direction 0.000000 1.000000 0.000000
      length 4.885285
      axis 0.0 0.0 0.0 xyz
   end
   begin
      id 2
      name LeftUpLeg_dum
      direction 1.000000 0.000000 0.000000
      length 2.672193
      axis 0.0 0.0 0.0 xyz
   end
   begin
      id 3
      name RightUpLeg_dum
      direction -1.000000 0.000000 0.000000
      length 2.672193
      axis 0.0 0.0 0.0 xyz
   end
   begin
      id 4
      name Spine
      direction 0.000000 1.000000 0.000000
      length 0.000000
      axis 0.0 0.0 0.0 xyz
      dof rx ry rz
   end
   begin
      id 5
      name Spine_dum1
      direction 0.000000 1.000000 0.000000
      length 16.494159
      axis 0.0 0.0 0.0 xyz
   end
   begin
      id 6
      name Spine_dum2
      direction 0.000000 1.000000 0.000000
      length 10.663448
      axis 0.0 0.0 0.0 xyz
   end
   begin
      id 7
      name Spine_dum3
      direction 0.000000 1.000000 0.000000
      length 10.663448
      axis 0.0 0.0 0.0 xyz
   end
   begin
      id 8
      name Head
      direction 0.000000 1.000000 0.000000
      length 4.527550
      axis 0.0 0.0 0.0 xyz
      dof rx ry rz
   end
   begin
      id 9
      name LeftShoulder
      direction 1.000000 0.000000 0.000000
      length 7.531907
      axis 0.0 0.0 -90.0 xyz
      dof rx ry rz
   end
   begin
      id 10
      name LeftArm
      direction 1.000000 0.000000 0.000000
      length 10.229199
      axis 0.0 0.0 -90.0 xyz
      dof rx ry rz
   end
   begin
      id 11
      name LeftForeArm
      direction 1.000000 0.000000 0.000000
      length 8.673495
      axis 0.0 0.0 -90.0 xyz
      dof ry rz rx
   end
   begin
      id 12
      name LeftHand
      direction 0.000000 0.000000 0.000000
      length 0.000000
      axis 0.0 0.0 -90.0 xyz
      dof rx ry rz
   end
   begin
      id 13
      name LeftHand_dum1
      direction 0.000000 0.000000 0.000000
      length 0.000000
      axis 0.0 0.0 -90.0 xyz
   end
   begin
      id 14
      name LeftHand_dum2
      direction 1.000000 0.000000 0.000000
      length 3.937000
      axis 0.0 0.0 -90.0 xyz
   end
   begin
      id 15
      name LeftHandThumb1
      direction 0.000000 0.000000 1.000000
      length 3.937000
      axis 0.0 0.0 -90.0 xyz
      dof rx rz ry
   end
   begin
      id 16
      name RightShoulder
      direction -1.000000 0.000000 0.000000
      length 7.531907
      axis 0.0 0.0 90.0 xyz
      dof rx ry rz
   end
   begin
      id 17
      name RightArm
      direction -1.000000 0.000000 0.000000
      length 10.229199
      axis 0.0 0.0 90.0 xyz
      dof rx ry rz
   end
   begin
      id 18
      name RightForeArm
      direction -1.000000 0.000000 0.000000
      length 8.673495
      axis 0.0 0.0 90.0 xyz
      dof ry rz rx
   end
   begin
      id 19
      name RightHand
      direction 0.000000 0.000000 0.000000
      length 0.000000
      axis 0.0 0.0 90.0 xyz
      dof rx ry rz
   end
   begin
      id 20
      name RightHand_dum1
      direction 0.000000 0.000000 0.000000
      length 0.000000
      axis 0.0 0.0 90.0 xyz
   end
   begin
      id 21
      name RightHand_dum2
      direction -1.000000 0.000000 0.000000
      length 3.937000
      axis 0.0 0.0 90.0 xyz
   end
   begin
      id 22
      name RightHandThumb1
      direction 0.000000 0.000000 1.000000
      length 3.937000
      axis 0.0 0.0 90.0 xyz
      dof rx rz ry
   end
   begin
      id 23
      name LeftUpLeg
      direction 0.000000 -1.000000 0.000000
      length 16.263388
      axis 0.0 0.0 0.0 xyz
      dof rx ry rz
   end
   begin
      id 24
      name LeftLeg
      direction 0.000000 -1.000000 0.000000
      length 14.328163
      axis 0.0 0.0 0.0 xyz
      dof rx ry rz
   end
   begin
      id 25
      name LeftFoot
      direction 0.000000 -0.258819 0.965926
      length 5.031290
      axis 15.0 0.0 0.0 xyz
      dof rx ry rz
   end
   begin
      id 26
      name LeftToeBase
      direction 0.000000 0.000000 1.000000
      length 2.952750
      axis 0.0 0.0 0.0 xyz
      dof rx ry rz
   end
   begin
      id 27
      name RightUpLeg
      direction 0.000000 -1.000000 0.000000
      length 16.263388
      axis 0.0 0.0 0.0 xyz
      dof rx ry rz
   end
   begin
      id 28
      name RightLeg
      direction 0.000000 -1.000000 0.000000
      length 14.328163
      axis 0.0 0.0 0.0 xyz
      dof rx ry rz
   end
   begin
      id 29
      name RightFoot
      direction 0.000000 -0.258819 0.965926
      length 5.031290
      axis 15.0 0.0 0.0 xyz
      dof rx ry rz
   end
   begin
      id 30
      name RightToeBase
      direction 0.000000 0.000000 1.000000
      length 2.952750
      axis 0.0 0.0 0.0 xyz
      dof rx ry rz
   end
:hierarchy
   begin
      root Spine_dum LeftUpLeg_dum RightUpLeg_dum
      Spine_dum Spine
      LeftUpLeg_dum LeftUpLeg
      RightUpLeg_dum RightUpLeg
      Spine Spine_dum1 Spine_dum2 Spine_dum3
      Spine_dum1 Head
      Spine_dum2 LeftShoulder
      Spine_dum3 RightShoulder
      LeftShoulder LeftArm
      LeftArm LeftForeArm
      LeftForeArm LeftHand
      LeftHand LeftHand_dum1 LeftHand_dum2
      LeftHand_dum1 LeftHandThumb1
      RightShoulder RightArm
      RightArm RightForeArm
      RightForeArm RightHand
      RightHand RightHand_dum1 RightHand_dum2
      RightHand_dum1 RightHandThumb1
      LeftUpLeg LeftLeg
      LeftLeg LeftFoot
      LeftFoot LeftToeBase
      RightUpLeg RightLeg
      RightLeg RightFoot
      RightFoot RightToeBase
   end

# File created by Blade
# Date/Time:  Tue Apr 07 20:13:55 2015
# Frame Rate: 120.000 fps
#------------------------------------------------------
:FULLY-SPECIFIED
:DEGREES
148
root 2.812962 32.735386 -7.464135 12.532439 3.452594 -0.456964
Spine -14.122154 -4.546405 -0.056391
Head 12.173425 -0.119304 -1.534269
LeftShoulder -23.254863 41.769199 20.705765
LeftArm 57.729564 -57.783325 -66.406960
LeftForeArm 7.083519 -0.000000 -3.821587
LeftHand 4.610927 -0.000000 4.978031
LeftHandThumb1 -26.253704 0.000000 33.147579
RightShoulder -9.298051 5.100273 -33.490127
RightArm 9.779921 16.529336 36.873407
RightForeArm -14.934728 0.000000 0.815106
RightHand 2.142546 -0.000000 0.063155
RightHandThumb1 -24.326973 -0.000000 -32.862282
LeftUpLeg -7.118186 -2.791558 2.113075
LeftLeg -2.695490 -0.000000 0.000000
LeftFoot -6.568990 4.566640 -18.686606
LeftToeBase -4.894010 -0.000000 0.000000
RightUpLeg -6.860677 -3.080973 -0.225088
RightLeg -3.484097 -0.000000 0.000000
RightFoot -7.156252 -7.193562 7.349441
RightToeBase 1.579847 -0.000000 -0.000000
149
root 2.813726 32.734435 -7.450959 12.564176 3.492798 -0.460131
Spine -14.135563 -4.499870 -0.064800
Head 12.086084 -0.154947 -1.541156
LeftShoulder -23.295372 41.803122 20.690291
LeftArm 57.621404 -57.882376 -66.332607
LeftForeArm 7.049573 -0.000000 -3.819161
LeftHand 4.600044 -0.000000 4.990070
LeftHandThumb1 -26.253704 0.000000 33.147579
RightShoulder -9.311309 5.098713 -33.485070
RightArm 9.725951 16.545896 36.823307
RightForeArm -15.020491 -0.000000 0.772131
RightHand 2.127020 -0.000000 0.133299
RightHandThumb1 -24.326973 -0.000000 -32.862282
LeftUpLeg -7.138658 -2.807199 2.123126
LeftLeg -2.682893 -0.000000 0.000000
LeftFoot -6.592487 4.555859 -18.686759
LeftToeBase -4.792842 -0.000000 0.000000
RightUpLeg -6.860786 -3.107319 -0.213642
RightLeg -3.493501 -0.000000 0.000000
RightFoot -7.169169 -7.208558 7.336786
RightToeBase 1.567228 -0.000000 -0.000000
150
root 2.814224 32.733721 -7.436604 12.588547 3.525889 -0.458384
Spine -14.145174 -4.457961 -0.080077
Head 12.014422 -0.185168 -1.550092
LeftShoulder -23.335457 41.823938 20.680455
LeftArm 57.542111 -58.030323 -66.302720
LeftForeArm 7.083692 0.000000 -3.820220
LeftHand 4.628376 0.000000 5.045198
LeftHandThumb1 -26.253704 0.000000 33.147579
RightShoulder -9.320602 5.047676 -33.477582
RightArm 9.710285 16.615259 36.795023
RightForeArm -15.100056 0.000000 0.752709
RightHand 2.097421 0.000000 0.087926
RightHandThumb1 -24.326973 -0.000000 -32.862282
LeftUpLeg -7.139076 -2.833202 2.126970
LeftLeg -2.683351 -0.000000 0.000000
LeftFoot -6.600883 4.542458 -18.679002
LeftToeBase -4.939595 -0.000000 0.000000
RightUpLeg -6.845986 -3.126033 -0.209066
RightLeg -3.512865 -0.000000 0.000000
RightFoot -7.186714 -7.226556 7.356114
RightToeBase 1.573085 -0.000000 -0.000000
151
root 2.814498 32.733122 -7.421898 12.614205 3.566968 -0.459386
Spine -14.158601 -4.414263 -0.088207
Head 11.960978 -0.203975 -1.576736
LeftShoulder -23.363590 41.831497 20.675491
LeftArm 57.445562 -58.201992 -66.254854
LeftForeArm 7.143796 0.000000 -3.824085
LeftHand 4.678069 -0.000000 4.961086
LeftHandThumb1 -26.253704 0.000000 33.147579
RightShoulder -9.338251 5.014400 -33.467124
RightArm 9.689741 16.608554 36.722947
RightForeArm -15.118704 -0.000000 0.720856
RightHand 2.031762 0.000000 0.168553
RightHandThumb1 -24.326973 -0.000000 -32.862282
LeftUpLeg -7.131054 -2.916838 2.142444
LeftLeg -2.702959 -0.000000 0.000000
LeftFoot -6.632551 4.596488 -18.665677
LeftToeBase -4.836523 -0.000000 0.000000
RightUpLeg -6.828706 -3.148778 -0.201499
RightLeg -3.537231 -0.000000 0.000000
RightFoot -7.190095 -7.237359 7.365295
RightToeBase 1.562149 -0.000000 -0.000000
152
root 2.814084 32.732569 -7.405396 12.643871 3.617754 -0.467741
Spine -14.177473 -4.368398 -0.097015
Head 11.906391 -0.234550 -1.573541
LeftShoulder -23.410516 41.843354 20.669280
LeftArm 57.301362 -58.306356 -66.111625
LeftForeArm 7.130171 -0.000000 -3.826241
LeftHand 4.717715 0.000000 5.174449
LeftHandThumb1 -26.253704 0.000000 33.147579
RightShoulder -9.357739 5.008184 -33.472714
RightArm 9.614583 16.540828 36.651138
RightForeArm -15.085010 -0.000000 0.728199
RightHand 2.123925 -0.000000 0.080993
RightHandThumb1 -24.326973 -0.000000 -32.862282
LeftUpLeg -7.130181 -2.970788 2.164759
LeftLeg -2.719436 -0.000000 0.000000
LeftFoot -6.649847 4.622860 -18.672934
LeftToeBase -4.790774 -0.000000 0.000000
RightUpLeg -6.815191 -3.211228 -0.174769
RightLeg -3.558334 -0.000000 0.000000
RightFoot -7.191104 -7.240999 7.352799
RightToeBase 1.518758 -0.000000 -0.000000
153
root 2.813948 32.731645 -7.388865 12.677426 3.645241 -0.468362
Spine -14.201214 -4.286387 -0.130059
Head 11.859476 -0.285181 -1.545358
LeftShoulder -23.428427 41.827776 20.713339
LeftArm 57.059509 -58.342729 -65.887048
LeftForeArm 6.961743 0.000000 -3.790715
LeftHand 4.631973 0.000000 5.505145
LeftHandThumb1 -26.253704 0.000000 33.147579
RightShoulder -9.391819 4.941770 -33.468172
RightArm 9.601530 16.467791 36.596721
RightForeArm -15.010602 -0.000000 0.697865
RightHand 2.016867 0.000000 -0.168378
RightHandThumb1 -24.326973 -0.000000 -32.862282
LeftUpLeg -7.131980 -2.995513 2.172529
LeftLeg -2.725972 -0.000000 0.000000
LeftFoot -6.667418 4.632137 -18.681557
LeftToeBase -4.840503 -0.000000 0.000000
RightUpLeg -6.810985 -3.228219 -0.168273
RightLeg -3.563315 -0.000000 0.000000
RightFoot -7.217193 -7.255070 7.293781
RightToeBase 1.142654 -0.000000 -0.000000
154
root 2.813500 32.731542 -7.369758 12.696500 3.675530 -0.474544
Spine -14.218591 -4.195987 -0.148460
Head 11.826745 -0.347189 -1.572455
LeftShoulder -23.448595 41.835987 20.718617
LeftArm 56.901689 -58.465366 -65.741921
LeftForeArm 6.878853 -0.000000 -3.716112
LeftHand 4.599109 -0.000000 5.655373
LeftHandThumb1 -26.253704 0.000000 33.147579
RightShoulder -9.420416 4.906080 -33.465482
RightArm 9.521761 16.525368 36.524356
RightForeArm -15.051739 0.000000 0.745466
RightHand 1.960084 -0.000000 -0.032460
RightHandThumb1 -24.326973 -0.000000 -32.862282
LeftUpLeg -7.114282 -3.031087 2.185633
LeftLeg -2.739843 -0.000000 0.000000
LeftFoot -6.688047 4.673314 -18.678801
LeftToeBase -4.856055 -0.000000 0.000000
RightUpLeg -6.785266 -3.254216 -0.153967
RightLeg -3.583443 -0.000000 0.000000
RightFoot -7.215474 -7.246751 7.329834
RightToeBase 1.483105 -0.000000 -0.000000
155
root 2.813326 32.730733 -7.350742 12.720835 3.711754 -0.480816
Spine -14.242127 -4.117539 -0.164684
Head 11.811166 -0.376996 -1.595261
LeftShoulder -23.483929 41.851712 20.731187
LeftArm 56.923150 -58.655106 -65.801712
LeftForeArm 7.046856 -0.000000 -3.669219
LeftHand 4.626497 -0.000000 5.725586
LeftHandThumb1 -26.253704 0.000000 33.147579
RightShoulder -9.461751 4.875535 -33.482847
RightArm 9.500056 16.514464 36.491686
RightForeArm -15.035672 -0.000000 0.742505
RightHand 1.993423 -0.000000 -0.166711
RightHandThumb1 -24.326973 -0.000000 -32.862282
LeftUpLeg -7.113035 -3.073876 2.198606
LeftLeg -2.730315 -0.000000 0.000000
LeftFoot -6.727020 4.737131 -18.663294
LeftToeBase -4.924640 -0.000000 0.000000
RightUpLeg -6.772286 -3.284578 -0.137041
RightLeg -3.582732 -0.000000 0.000000
RightFoot -7.243338 -7.253092 7.340064
RightToeBase 1.495645 -0.000000 -0.000000
156
root 2.812837 32.730534 -7.332606 12.748050 3.751527 -0.493499
Spine -14.268842 -4.048653 -0.165749
Head 11.805524 -0.395282 -1.631586
LeftShoulder -23.517259 41.843600 20.743648
LeftArm 56.829299 -58.824327 -65.760502
LeftForeArm 7.145823 0.000000 -3.590036
LeftHand 4.688189 0.000000 5.840674
LeftHandThumb1 -26.253704 0.000000 33.147579
RightShoulder -9.472963 4.843658 -33.490114
RightArm 9.428953 16.550030 36.433108
RightForeArm -15.066619 -0.000000 0.803685
RightHand 2.035041 -0.000000 -0.199310
RightHandThumb1 -24.326973 -0.000000 -32.862282
LeftUpLeg -7.124148 -3.139935 2.222610
LeftLeg -2.706145 -0.000000 0.000000
LeftFoot -6.772125 4.812993 -18.644655
LeftToeBase -5.108396 -0.000000 0.000000
RightUpLeg -6.769333 -3.291872 -0.115000
RightLeg -3.572243 -0.000000 0.000000
RightFoot -7.257583 -7.288833 7.339551
RightToeBase 1.486943 -0.000000 -0.000000
157
root 2.814507 32.729621 -7.313823 12.775328 3.785910 -0.483088
Spine -14.291820 -3.983105 -0.192997
Head 11.792116 -0.424537 -1.653980
LeftShoulder -23.575062 41.857895 20.750199
LeftArm 56.783025 -58.996618 -65.778773
LeftForeArm 7.237220 -0.000000 -3.484871
LeftHand 4.786037 -0.000000 5.955775
LeftHandThumb1 -26.253704 0.000000 33.147579
RightShoulder -9.503681 4.796956 -33.505789
RightArm 9.390678 16.600696 36.399123
RightForeArm -15.044791 0.000000 0.867612
RightHand 2.026515 0.000000 -0.275126
RightHandThumb1 -24.326973 -0.000000 -32.862282
LeftUpLeg -7.133367 -3.224507 2.221065
LeftLeg -2.681824 -0.000000 0.000000
LeftFoot -6.849866 4.929387 -18.686867
LeftToeBase -5.149217 -0.000000 0.000000
RightUpLeg -6.761965 -3.283232 -0.127514
RightLeg -3.562258 -0.000000 0.000000
RightFoot -7.301394 -7.321591 7.337985
RightToeBase 1.476793 -0.000000 -0.000000
158
root 2.814720 32.728916 -7.293435 12.805512 3.835596 -0.493692
Spine -14.327112 -3.914735 -0.197107
Head 11.805690 -0.446793 -1.685948
LeftShoulder -23.586119 41.832761 20.782953
LeftArm 56.701629 -59.188440 -65.780021
LeftForeArm 7.394993 -0.000000 -3.365680
LeftHand 4.914109 -0.000000 6.020629
LeftHandThumb1 -26.253704 0.000000 33.147579
RightShoulder -9.527687 4.779989 -33.507103
RightArm 9.388475 16.828784 36.390918
RightForeArm -15.278046 -0.000000 0.840754
RightHand 2.023513 -0.000000 -0.475058
RightHandThumb1 -24.326973 -0.000000 -32.862282
LeftUpLeg -7.158816 -3.294828 2.244820
LeftLeg -2.639600 -0.000000 0.000000
LeftFoot -6.931872 5.024291 -18.731562
LeftToeBase -5.053164 -0.000000 0.000000
RightUpLeg -6.753257 -3.323268 -0.102938
RightLeg -3.562915 -0.000000 0.000000
RightFoot -7.317899 -7.337236 7.325149
RightToeBase 1.489494 -0.000000 -0.000000
